<svg id="Layer_1" data-name="Layer 1" xmlns="http://www.w3.org/2000/svg" viewBox="0 0 521.39 209.89"><defs><style>.cls-1{fill:#050505;}</style></defs><path class="cls-1" d="M157.08,292.35c-3.19-2.63-3.93-3.71-7-3.13a14.93,14.93,0,0,0-4.45,1.89c-3.5,2.11-1.72,1-8.66,11-1.3.49-2.69,1.13-4.25,1.89-8.8,4.49-9.72,6.3-16.51,9.84-.36,0-.65-.16-.63-.52,0-1.57-.27-1.67.88-3.29,0,0,7.52-11.42,11.56-15.74,3.21-3.51,3.54-3.52,4.87-3.23,0-.55.25-.43-1.78-1.67-1.75-.87-2.88-.65-7.65,2.15-1.58,1-2.44,1.31-8.21,9.42-3.52-.33-6.54.88-11.17,3.07-8.73,4.52-9.64,6.3-16.41,9.81-.39,0-.64-.14-.64-.5a20.06,20.06,0,0,1-.1-2c0-.57.35-.85,2.28-2.94,0,0,6.12-5.74,12.89-13,.62-.72-.21-1.92-1-3.25-2.28-3.58-4.11-5.28-8.42-1.6L52.5,324.74,53,324c5.21-8,11-17.31,14.28-24.32,2.74-6.8,1.38-8.44-.63-10.95-4.41-4.18-6.5-4.47-14.29-5.36-9-1-10.06-1.42-10.9-1.72-.2,0-.18-.27.5-1.78,3.7-7.82,18.46-23.16,33.76-35.08,11.93-9,19.7-12.93,25.17-14.36-1.68-.88-2.29-1.38-2.71-1.52-1.89-.64-4.31-.69-7.88.51-4.72,1.72-11.28,5.34-21.57,13-15.29,12-30.05,27.26-33.76,35.09-.48.94-.08,1.94.33,2.92,2,3.78,2.27,3.89,5.8,5.15s7.08,1.72,13.13,2.5c2.47.34,6.56.55,7.56,1.8.51.92,1,2-1.06,7-6.52,14-23.16,37.2-26,41.38-.57,1.1-.65,1.55-.2,1.72l5.16,2.09c1.06.46,1.23-.09,1.92-.6l39.14-33.65c0,.1-.42.12-.07.82a7.8,7.8,0,0,1,.8,4.25c.11,2.52,4.15,4.55,5.4,5.13,2.32,1.11,3.61,1.22,6.24-.18,7.48-3.75,8.1-5.5,17.22-10.2a8.5,8.5,0,0,0,.92-.44c-1,1.9-1.13,2.82-1.23,5.63.08,2.59,4.16,4.57,5.4,5.19,2.36,1.1,3.64,1.18,6.25-.2,5.16-2.56,7-4.21,10.69-6.49-.08.61-.12,1.28-.16,2.1.11,2.57,3.93,4.49,5.18,5.11,2.32,1.06,4.21,1.13,6.27-.22,7.49-5.21,14-14.92,15.19-18.92C159.53,296.46,160.05,294.94,157.08,292.35Zm-4.65,3.53c-.69,3.15-.66,3.25-1.94,5.22-6.64,8.95-7.26,9.14-8.71,10.16a4.93,4.93,0,0,1-.84.54c-.28.08-.24-.13-.41-.8a1.33,1.33,0,0,1,.28-1.12c0,.05.32-.68,4.68-9.11.95-2.31,1.35-2.14,3.95-4.52a5.34,5.34,0,0,1,2.8-1.36C152.47,294.92,152.6,295,152.43,295.88Z" transform="translate(-34.25 -198.84)"/><path class="cls-1" d="M250.71,271.11c4.19-9.15,4.59-12.27,12.7-28.09a.6.6,0,0,0-.17-.85,33.17,33.17,0,0,0-3.39-2.45c-.38-.27-.87-.28-1.37.28,0,0-.25.39-2,3.54-8.36,16.26-8.7,19.35-13,28.55-.54,1.49-1.14,2.93-1.71,4.43-.62,1.21-2.81,3.84-14.21,17.06-3.94-1.32-4-1.47-7.25-.27-6.28,2.45-7.52,4.17-9.91,7.65-.13.19-.21.28-.31.44-2.44.89-6.06,2.28-11.79,4.14-1.81.48-2.45.15-3.16-1.4L193,298.86c-.78-2.21-1.29-3.21-5.43-6.14-2.91-1.94-6-1.37-9.38,2.49-1.83,1.9-3.39,4.43-5.46,6.85-4.5,5.9-5.18,6.82-5.18,6.82,1.83-9.8,2.25-11.76,2.49-13.77.43-4.57.92-5.07.08-5.78a10.09,10.09,0,0,0-1.9-1.07c-.5-.21-.73.13-1,.52,0,0-.39.91-2.7,6.39-.69,1.88,0-1.78-3.17,13.84-.28,1.82-.29,1.47.18,4,.32,1.55,3,4.48,5.22,5.56a1.43,1.43,0,0,0,1.59.06c1.11-.71,1.44-1.21,3.92-4.51,12.28-16.75,13.37-16.85,13.88-16.83s1.07.59,1.26,1.18c2.92,7,2.3,6.65,5.19,8.91,4,2.62,6.71,1.92,11.65.84.77-.2,1.38-.39,1.88-.51-.83,1.69-.87,2.59-.95,5.28s1.4,2.89,4.52,4.78c2.3,1.09,4.19,1.2,6.22-.18a42.43,42.43,0,0,0,7.43-6.94c5.9-7.28,9.26-11.79,11.7-15.27-3.45,10.73-5.92,20.4-6.87,27.62l-.07.36c-.53,3.79.23,4,2.56,10,1,1.77.28,1.41,3.29,2.87.33.2.91-.06.83-.38-.38-1.52-.05-3.48.19-10.17C235.63,313.89,242.23,292.58,250.71,271.11Zm-33,35a24.57,24.57,0,0,1-3.42,3.72,2.86,2.86,0,0,1-.84.51c-.53.28-.75.1-.78-.5s.27-.82.65-1.47c0,0,.29-.37,2.63-3.88a15,15,0,0,1,5.1-4.22c.6-.37.71-.33,1.59.18C222.66,300.49,220.6,302.9,217.73,306.15Z" transform="translate(-34.25 -198.84)"/><path class="cls-1" d="M311.25,201.08c-2.71-1.81-3.16-2-3.29-2.11a.94.94,0,0,0-1.33.45L237.56,386.23c-.32,1-.39,1,.25,1.58,2,1.68,2.44,2,2.44,2,.87.68,1,.95,1.52.9.23-.07.33-.1.46-.62,0,0,69-187.42,69.26-188.25C311.7,201.34,311.4,201.13,311.25,201.08Z" transform="translate(-34.25 -198.84)"/><path class="cls-1" d="M433.27,294.64a15.37,15.37,0,0,0,.76-2.26c.22-1.19-.15-1.76-2.28-2.84-3.24-1.59-2.27,0-7.26,5.07-4.69,4.72-8.63,10.07-13.49,14.65-1.09,1.07-5.4,2-5-.62.11-.9,3.44-12,3.69-13.14.09-.67.31-1.25.38-1.92a3.29,3.29,0,0,0-1.71-2.95c-4-1.94-3.51-2.45-6.89-1.53-2.9.79-4,2.27-6.27,4.11-4.38,3.69-9.62,8.8-13.93,12.67-.81.68-2.89,2.86-3.38,3.06s-.66,0-.7-.4c-.1-.8,1.27-10,1.4-10.94.07-.43,0-.33.36-.56s.47-.18.62-.47a2.25,2.25,0,0,0,.13-1.33c-.09-.38-4.81-4.6-5.71-4.4a8.74,8.74,0,0,0-2.65,1.46c-.39.26-.72.73-1.1.84-.83.32-2-1.15-2.51-1.65-2.49-2.27-5.12-3.76-8.66-2.49-2.12.75-4.29,1.39-6.47,2.13-2.71.91-4.92,3.11-7.41,4.47a110,110,0,0,0-12.8,7.95c-5.29,3.83-10.37,7.92-15.38,12.16-3.63,2.94-15.53,13-15.34,12.39.39-1.19,1.31-6.29,1.59-7.32s30.94-87.12,31.62-89.57c.09-.42.09-1.16-.09-1.21-1.09-.51-2.36-1.37-3.34-1.17-2,.34-2,2.68-3,4.46-2,3.5-2.66,7.61-4.09,11.29-1,2.85-10.09,26.22-10.85,28.18-.48,1.27-5.28,13.24-5.61,14.3-.57,1.53-8.87,24.84-11.64,32.65h0c-2.73,6.61-2.82,6.39-2.35,10.88.48,2.61,4.74,4.12,6.06,4.61,2.46.78,3.73.74,6.17-1.07a72.79,72.79,0,0,0,6.39-5.17l2-1.73c5.06-4.4,10-9,15.06-13.17,6.61-5.46,12.6-10.1,19.47-15.27.75-.58,1.54-1.14,2.33-1.7.5-.4,1.67-1.35,2.34-1,.1.7-1.31,2.26-1.73,2.81s-5.64,8.77-5.79,9a21.55,21.55,0,0,0-1.1,5.14,3.43,3.43,0,0,0,1.3,2.42,35.33,35.33,0,0,0,4.12,1.79c.2.06,1.3.29,1.53.32,2.8.6,7.31-3.34,8.06-4.07,1.73-1.64,3.45-3.35,5.14-5,1.07-1,3.76-4.4,4.35-4.57s.78-.06.81.5c0,.92-.95,8.23-.88,8.68.18,2.73,0,1.85,5.51,4.78a3.42,3.42,0,0,0,4.12-.3c2.81-2.52,5.65-5,8.46-7.57,4.09-3.61,9.2-8.5,13.25-12.19a4.38,4.38,0,0,1,1.19-.36,8.86,8.86,0,0,0-.35,1.44,16.22,16.22,0,0,1-.49,2.14,7.4,7.4,0,0,1-.42,1.7c-.11.45-1.87,7.69-2,8.05a4.68,4.68,0,0,0,.28,2.62,14.18,14.18,0,0,0,.8,2.05c1,2.33,7,3.21,9.19,2.8,4.29-.87,8.84-6.54,12.06-9.38.33-.23.1,0,.5-.12.13.11-2.88,8.58-3,8.54-22.38,61.34-31.13,85.05-31.13,85.05-.78,2.16-.79,2.44-.2,3.51,2,2.28,1.53,1.91,2.22,2.47s1.93.72,2.67-1.37c.05,0,9.78-26.73,39.41-107.66C432.12,297.76,432.75,296.22,433.27,294.64Zm-80.36,15.25c-.4-.29-.23-1.13-.06-1.48.43-.81,7.18-10.91,7.83-11.25.86-.41,3.69,2.32,4,2.3C364.77,300.18,354,310.58,352.91,309.89Z" transform="translate(-34.25 -198.84)"/><path class="cls-1" d="M555.52,301.14l-.22-.11a15.2,15.2,0,0,0-2.3-1.45l-1.85-1a15.18,15.18,0,0,0-4.75-2.15,39.56,39.56,0,0,0-6.88-.62c-1.25,0-2.48.09-3.7.2A180.07,180.07,0,0,0,518,298.64c-6.35,1.16-12.76,2.54-19,3.92-1.24.3-2.47.54-3.74.84a19.08,19.08,0,0,1-4.28.48,12,12,0,0,1-7.39-2.35,9.72,9.72,0,0,0-1.9-1.1c-.51-.2-1-.41-1.52-.63a15.83,15.83,0,0,0-4.07-1.43c-4.29-.67-8.67.42-13.56,3.21-3.36,1.91-6.59,4.09-9.77,6.12l-4.23,2.69c-.45.3-.93.59-1.41.86l-.68.4-.24-.13a1.66,1.66,0,0,0-.23-.23s-.06-.09-.06-.09l-.2-.24.16-.21.08-.21a1.89,1.89,0,0,1,.33-.57c.47-.68.94-1.34,1.36-2,.71-.88,1.41-1.79,2.08-2.75,4.68-7.73,4.2-7.46,4.36-7.72,2.39-4.36,1-5.7-.23-7a5.36,5.36,0,0,1-.58-.66c-.51-.63-.87-1.72-3.47-1.74a7.5,7.5,0,0,0-2.4.42c-.05,0,0,.08-.12.13-2.55,1.77-5,6-6.44,9.26a22.1,22.1,0,0,0-1.36,4.76c-.1.31-.14.62-.21.94-.09.66-.18,1.33-.28,2s-.08,1-.16,1.54a10.52,10.52,0,0,1-2.18,4.32c-.4.65-.9,1.31-1.26,2s-.77,1.34-1.17,2c-1.06,1.64-2.09,3.11-2.13,5.06-.09,1.28-1.28,2.66-1,4.32.18,1,1.39,1.52,2.42,1.55a2.26,2.26,0,0,0,1.36-.4c2.31-1.87,3.79-4.46,5.26-7l.16-.25c.78-1.39,1.21-2.17,2.24-2.17a6.42,6.42,0,0,1,2.82,1.05,5.53,5.53,0,0,0,5.46-.05c2.62-1.4,5.34-3.05,8.38-5.06l.88-.59c3.93-2.57,7.93-5.23,12.42-7a12.62,12.62,0,0,1,4.57-1,7.78,7.78,0,0,1,4.08,1.16,33,33,0,0,0,4.3,2.12c.56.25,1.14.44,1.67.7a16.76,16.76,0,0,0,8.6,1.71c1.86-.23,4.05-.47,6.23-.9,3.23-.71,6.56-1.35,9.7-2.06,5.6-1.19,11.46-2.41,17.21-3.49,4.36-.74,8.88-1.11,13.25-1.48l1.05-.09c1.67-.11,3.35-.12,4.74-.15.59,0,1.08,0,1.64,0l2.7.05.52-.06c.87,0,1.73,0,2.67-.05h.18C555.6,301.26,555.52,301.19,555.52,301.14Z" transform="translate(-34.25 -198.84)"/></svg>